<mxfile host="app.diagrams.net" agent="Mozilla/5.0 (Windows NT 10.0; Win64; x64) AppleWebKit/537.36 (KHTML, like Gecko) Chrome/132.0.0.0 Safari/537.36" version="26.0.12">
  <diagram id="C5RBs43oDa-KdzZeNtuy" name="Page-1">
    <mxGraphModel dx="1235" dy="1783" grid="1" gridSize="10" guides="1" tooltips="1" connect="1" arrows="1" fold="1" page="1" pageScale="1" pageWidth="827" pageHeight="1169" math="0" shadow="0">
      <root>
        <mxCell id="WIyWlLk6GJQsqaUBKTNV-0" />
        <mxCell id="WIyWlLk6GJQsqaUBKTNV-1" parent="WIyWlLk6GJQsqaUBKTNV-0" />
        <mxCell id="FHTCSGeZNcckAPXwZI9B-60" value="" style="group" vertex="1" connectable="0" parent="WIyWlLk6GJQsqaUBKTNV-1">
          <mxGeometry x="10" y="-50" width="390" height="635" as="geometry" />
        </mxCell>
        <mxCell id="FHTCSGeZNcckAPXwZI9B-17" value="&lt;font style=&quot;color: rgb(255, 255, 255);&quot;&gt;END&lt;/font&gt;" style="ellipse;whiteSpace=wrap;html=1;aspect=fixed;fillColor=#FF3333;strokeColor=#000000;" vertex="1" parent="FHTCSGeZNcckAPXwZI9B-60">
          <mxGeometry x="170" y="585" width="50" height="50" as="geometry" />
        </mxCell>
        <mxCell id="FHTCSGeZNcckAPXwZI9B-25" value="" style="group" vertex="1" connectable="0" parent="FHTCSGeZNcckAPXwZI9B-60">
          <mxGeometry y="110" width="130" height="320" as="geometry" />
        </mxCell>
        <mxCell id="WIyWlLk6GJQsqaUBKTNV-2" value="" style="rounded=0;html=1;jettySize=auto;orthogonalLoop=1;fontSize=11;endArrow=block;endFill=0;endSize=8;strokeWidth=1;shadow=0;labelBackgroundColor=none;edgeStyle=orthogonalEdgeStyle;" parent="FHTCSGeZNcckAPXwZI9B-25" edge="1">
          <mxGeometry relative="1" as="geometry">
            <mxPoint x="60" y="40" as="sourcePoint" />
            <mxPoint x="60" y="70" as="targetPoint" />
          </mxGeometry>
        </mxCell>
        <mxCell id="FHTCSGeZNcckAPXwZI9B-7" value="&lt;font style=&quot;font-size: 10px;&quot;&gt;Form Display&lt;/font&gt;&lt;span style=&quot;color: rgba(0, 0, 0, 0); font-family: monospace; font-size: 0px; text-align: start; text-wrap-mode: nowrap;&quot;&gt;%3CmxGraphModel%3E%3Croot%3E%3CmxCell%20id%3D%220%22%2F%3E%3CmxCell%20id%3D%221%22%20parent%3D%220%22%2F%3E%3CmxCell%20id%3D%222%22%20value%3D%22B.%20Update%22%20style%3D%22shape%3Dparallelogram%3Bperimeter%3DparallelogramPerimeter%3BwhiteSpace%3Dwrap%3Bhtml%3D1%3BfixedSize%3D1%3B%22%20vertex%3D%221%22%20parent%3D%221%22%3E%3CmxGeometry%20x%3D%22140%22%20y%3D%22140%22%20width%3D%22130%22%20height%3D%2240%22%20as%3D%22geometry%22%2F%3E%3C%2FmxCell%3E%3C%2Froot%3E%3C%2FmxGraphModel%3E&lt;/span&gt;" style="whiteSpace=wrap;html=1;aspect=fixed;" vertex="1" parent="FHTCSGeZNcckAPXwZI9B-25">
          <mxGeometry x="30" y="70" width="60" height="60" as="geometry" />
        </mxCell>
        <mxCell id="FHTCSGeZNcckAPXwZI9B-9" value="" style="rounded=0;html=1;jettySize=auto;orthogonalLoop=1;fontSize=11;endArrow=block;endFill=0;endSize=8;strokeWidth=1;shadow=0;labelBackgroundColor=none;edgeStyle=orthogonalEdgeStyle;" edge="1" parent="FHTCSGeZNcckAPXwZI9B-25">
          <mxGeometry relative="1" as="geometry">
            <mxPoint x="59.71000000000001" y="130" as="sourcePoint" />
            <mxPoint x="59.71000000000001" y="160" as="targetPoint" />
          </mxGeometry>
        </mxCell>
        <mxCell id="FHTCSGeZNcckAPXwZI9B-10" value="" style="rounded=0;html=1;jettySize=auto;orthogonalLoop=1;fontSize=11;endArrow=block;endFill=0;endSize=8;strokeWidth=1;shadow=0;labelBackgroundColor=none;edgeStyle=orthogonalEdgeStyle;" edge="1" parent="FHTCSGeZNcckAPXwZI9B-25">
          <mxGeometry relative="1" as="geometry">
            <mxPoint x="59.71000000000001" y="200" as="sourcePoint" />
            <mxPoint x="59.71000000000001" y="230" as="targetPoint" />
          </mxGeometry>
        </mxCell>
        <mxCell id="FHTCSGeZNcckAPXwZI9B-11" value="&lt;span style=&quot;font-size: 10px;&quot;&gt;Save employee details&lt;/span&gt;" style="whiteSpace=wrap;html=1;aspect=fixed;" vertex="1" parent="FHTCSGeZNcckAPXwZI9B-25">
          <mxGeometry x="15" y="230" width="90" height="90" as="geometry" />
        </mxCell>
        <mxCell id="FHTCSGeZNcckAPXwZI9B-12" value="A. Create Account" style="shape=parallelogram;perimeter=parallelogramPerimeter;whiteSpace=wrap;html=1;fixedSize=1;" vertex="1" parent="FHTCSGeZNcckAPXwZI9B-25">
          <mxGeometry width="130" height="40" as="geometry" />
        </mxCell>
        <mxCell id="FHTCSGeZNcckAPXwZI9B-13" value="Input employee details" style="shape=parallelogram;perimeter=parallelogramPerimeter;whiteSpace=wrap;html=1;fixedSize=1;" vertex="1" parent="FHTCSGeZNcckAPXwZI9B-25">
          <mxGeometry y="160" width="120" height="40" as="geometry" />
        </mxCell>
        <mxCell id="FHTCSGeZNcckAPXwZI9B-32" value="" style="rounded=0;html=1;jettySize=auto;orthogonalLoop=1;fontSize=11;endArrow=block;endFill=0;endSize=8;strokeWidth=1;shadow=0;labelBackgroundColor=none;edgeStyle=orthogonalEdgeStyle;entryX=0.579;entryY=-0.018;entryDx=0;entryDy=0;entryPerimeter=0;" edge="1" parent="FHTCSGeZNcckAPXwZI9B-60" target="FHTCSGeZNcckAPXwZI9B-34">
          <mxGeometry relative="1" as="geometry">
            <mxPoint x="190" y="80" as="sourcePoint" />
            <mxPoint x="490" y="120" as="targetPoint" />
          </mxGeometry>
        </mxCell>
        <mxCell id="FHTCSGeZNcckAPXwZI9B-33" value="B. Update" style="shape=parallelogram;perimeter=parallelogramPerimeter;whiteSpace=wrap;html=1;fixedSize=1;" vertex="1" parent="FHTCSGeZNcckAPXwZI9B-60">
          <mxGeometry x="130" y="190" width="130" height="40" as="geometry" />
        </mxCell>
        <mxCell id="FHTCSGeZNcckAPXwZI9B-34" value="C. Delete" style="shape=parallelogram;perimeter=parallelogramPerimeter;whiteSpace=wrap;html=1;fixedSize=1;" vertex="1" parent="FHTCSGeZNcckAPXwZI9B-60">
          <mxGeometry x="260" y="110" width="130" height="40" as="geometry" />
        </mxCell>
        <mxCell id="FHTCSGeZNcckAPXwZI9B-35" value="&lt;font style=&quot;font-size: 10px;&quot;&gt;Form Display&lt;/font&gt;&lt;span style=&quot;color: rgba(0, 0, 0, 0); font-family: monospace; font-size: 0px; text-align: start; text-wrap-mode: nowrap;&quot;&gt;%3CmxGraphModel%3E%3Croot%3E%3CmxCell%20id%3D%220%22%2F%3E%3CmxCell%20id%3D%221%22%20parent%3D%220%22%2F%3E%3CmxCell%20id%3D%222%22%20value%3D%22B.%20Update%22%20style%3D%22shape%3Dparallelogram%3Bperimeter%3DparallelogramPerimeter%3BwhiteSpace%3Dwrap%3Bhtml%3D1%3BfixedSize%3D1%3B%22%20vertex%3D%221%22%20parent%3D%221%22%3E%3CmxGeometry%20x%3D%22140%22%20y%3D%22140%22%20width%3D%22130%22%20height%3D%2240%22%20as%3D%22geometry%22%2F%3E%3C%2FmxCell%3E%3C%2Froot%3E%3C%2FmxGraphModel%3E&lt;/span&gt;" style="whiteSpace=wrap;html=1;aspect=fixed;" vertex="1" parent="FHTCSGeZNcckAPXwZI9B-60">
          <mxGeometry x="165" y="260" width="60" height="60" as="geometry" />
        </mxCell>
        <mxCell id="FHTCSGeZNcckAPXwZI9B-37" value="Edit employee details" style="shape=parallelogram;perimeter=parallelogramPerimeter;whiteSpace=wrap;html=1;fixedSize=1;" vertex="1" parent="FHTCSGeZNcckAPXwZI9B-60">
          <mxGeometry x="140" y="350" width="110" height="50" as="geometry" />
        </mxCell>
        <mxCell id="FHTCSGeZNcckAPXwZI9B-40" value="&lt;span style=&quot;font-size: 10px;&quot;&gt;Update employee Account&lt;/span&gt;" style="whiteSpace=wrap;html=1;aspect=fixed;" vertex="1" parent="FHTCSGeZNcckAPXwZI9B-60">
          <mxGeometry x="150" y="430" width="90" height="90" as="geometry" />
        </mxCell>
        <mxCell id="FHTCSGeZNcckAPXwZI9B-44" value="" style="rounded=0;html=1;jettySize=auto;orthogonalLoop=1;fontSize=11;endArrow=block;endFill=0;endSize=8;strokeWidth=1;shadow=0;labelBackgroundColor=none;edgeStyle=orthogonalEdgeStyle;" edge="1" parent="FHTCSGeZNcckAPXwZI9B-60">
          <mxGeometry relative="1" as="geometry">
            <mxPoint x="194.66" y="230" as="sourcePoint" />
            <mxPoint x="194.66" y="260" as="targetPoint" />
          </mxGeometry>
        </mxCell>
        <mxCell id="FHTCSGeZNcckAPXwZI9B-45" value="" style="rounded=0;html=1;jettySize=auto;orthogonalLoop=1;fontSize=11;endArrow=block;endFill=0;endSize=8;strokeWidth=1;shadow=0;labelBackgroundColor=none;edgeStyle=orthogonalEdgeStyle;" edge="1" parent="FHTCSGeZNcckAPXwZI9B-60">
          <mxGeometry relative="1" as="geometry">
            <mxPoint x="194.66" y="320" as="sourcePoint" />
            <mxPoint x="194.66" y="350" as="targetPoint" />
          </mxGeometry>
        </mxCell>
        <mxCell id="FHTCSGeZNcckAPXwZI9B-46" value="" style="rounded=0;html=1;jettySize=auto;orthogonalLoop=1;fontSize=11;endArrow=block;endFill=0;endSize=8;strokeWidth=1;shadow=0;labelBackgroundColor=none;edgeStyle=orthogonalEdgeStyle;" edge="1" parent="FHTCSGeZNcckAPXwZI9B-60">
          <mxGeometry relative="1" as="geometry">
            <mxPoint x="194.66" y="400" as="sourcePoint" />
            <mxPoint x="194.66" y="430" as="targetPoint" />
          </mxGeometry>
        </mxCell>
        <mxCell id="FHTCSGeZNcckAPXwZI9B-47" value="" style="rounded=0;html=1;jettySize=auto;orthogonalLoop=1;fontSize=11;endArrow=block;endFill=0;endSize=8;strokeWidth=1;shadow=0;labelBackgroundColor=none;edgeStyle=orthogonalEdgeStyle;entryX=0.5;entryY=0;entryDx=0;entryDy=0;" edge="1" parent="FHTCSGeZNcckAPXwZI9B-60" target="FHTCSGeZNcckAPXwZI9B-17">
          <mxGeometry relative="1" as="geometry">
            <mxPoint x="194.66" y="520" as="sourcePoint" />
            <mxPoint x="194.66" y="550" as="targetPoint" />
          </mxGeometry>
        </mxCell>
        <mxCell id="FHTCSGeZNcckAPXwZI9B-49" value="&lt;font style=&quot;font-size: 10px;&quot;&gt;Form Display&lt;/font&gt;&lt;span style=&quot;color: rgba(0, 0, 0, 0); font-family: monospace; font-size: 0px; text-align: start; text-wrap-mode: nowrap;&quot;&gt;%3CmxGraphModel%3E%3Croot%3E%3CmxCell%20id%3D%220%22%2F%3E%3CmxCell%20id%3D%221%22%20parent%3D%220%22%2F%3E%3CmxCell%20id%3D%222%22%20value%3D%22B.%20Update%22%20style%3D%22shape%3Dparallelogram%3Bperimeter%3DparallelogramPerimeter%3BwhiteSpace%3Dwrap%3Bhtml%3D1%3BfixedSize%3D1%3B%22%20vertex%3D%221%22%20parent%3D%221%22%3E%3CmxGeometry%20x%3D%22140%22%20y%3D%22140%22%20width%3D%22130%22%20height%3D%2240%22%20as%3D%22geometry%22%2F%3E%3C%2FmxCell%3E%3C%2Froot%3E%3C%2FmxGraphModel%3E&lt;/span&gt;" style="whiteSpace=wrap;html=1;aspect=fixed;" vertex="1" parent="FHTCSGeZNcckAPXwZI9B-60">
          <mxGeometry x="310" y="180" width="60" height="60" as="geometry" />
        </mxCell>
        <mxCell id="FHTCSGeZNcckAPXwZI9B-51" value="" style="rounded=0;html=1;jettySize=auto;orthogonalLoop=1;fontSize=11;endArrow=block;endFill=0;endSize=8;strokeWidth=1;shadow=0;labelBackgroundColor=none;edgeStyle=orthogonalEdgeStyle;" edge="1" parent="FHTCSGeZNcckAPXwZI9B-60">
          <mxGeometry relative="1" as="geometry">
            <mxPoint x="340" y="150" as="sourcePoint" />
            <mxPoint x="340" y="180" as="targetPoint" />
          </mxGeometry>
        </mxCell>
        <mxCell id="FHTCSGeZNcckAPXwZI9B-52" value="Input staffID" style="shape=parallelogram;perimeter=parallelogramPerimeter;whiteSpace=wrap;html=1;fixedSize=1;" vertex="1" parent="FHTCSGeZNcckAPXwZI9B-60">
          <mxGeometry x="285" y="270" width="105" height="40" as="geometry" />
        </mxCell>
        <mxCell id="FHTCSGeZNcckAPXwZI9B-53" value="" style="rounded=0;html=1;jettySize=auto;orthogonalLoop=1;fontSize=11;endArrow=block;endFill=0;endSize=8;strokeWidth=1;shadow=0;labelBackgroundColor=none;edgeStyle=orthogonalEdgeStyle;" edge="1" parent="FHTCSGeZNcckAPXwZI9B-60">
          <mxGeometry relative="1" as="geometry">
            <mxPoint x="339.66" y="240" as="sourcePoint" />
            <mxPoint x="339.66" y="270" as="targetPoint" />
          </mxGeometry>
        </mxCell>
        <mxCell id="FHTCSGeZNcckAPXwZI9B-54" value="" style="rounded=0;html=1;jettySize=auto;orthogonalLoop=1;fontSize=11;endArrow=block;endFill=0;endSize=8;strokeWidth=1;shadow=0;labelBackgroundColor=none;edgeStyle=orthogonalEdgeStyle;" edge="1" parent="FHTCSGeZNcckAPXwZI9B-60">
          <mxGeometry relative="1" as="geometry">
            <mxPoint x="339.66" y="310" as="sourcePoint" />
            <mxPoint x="339.66" y="340" as="targetPoint" />
          </mxGeometry>
        </mxCell>
        <mxCell id="FHTCSGeZNcckAPXwZI9B-55" value="&lt;span style=&quot;font-size: 10px;&quot;&gt;Delete employee Account&lt;/span&gt;" style="whiteSpace=wrap;html=1;aspect=fixed;" vertex="1" parent="FHTCSGeZNcckAPXwZI9B-60">
          <mxGeometry x="295" y="340" width="90" height="90" as="geometry" />
        </mxCell>
        <mxCell id="FHTCSGeZNcckAPXwZI9B-57" value="" style="rounded=0;html=1;jettySize=auto;orthogonalLoop=1;fontSize=11;endArrow=block;endFill=0;endSize=8;strokeWidth=1;shadow=0;labelBackgroundColor=none;edgeStyle=orthogonalEdgeStyle;entryX=1;entryY=0.5;entryDx=0;entryDy=0;exitX=0.5;exitY=1;exitDx=0;exitDy=0;" edge="1" parent="FHTCSGeZNcckAPXwZI9B-60" source="FHTCSGeZNcckAPXwZI9B-55" target="FHTCSGeZNcckAPXwZI9B-17">
          <mxGeometry relative="1" as="geometry">
            <mxPoint x="500" y="450" as="sourcePoint" />
            <mxPoint x="500.34" y="515" as="targetPoint" />
            <Array as="points">
              <mxPoint x="340" y="610" />
            </Array>
          </mxGeometry>
        </mxCell>
        <mxCell id="FHTCSGeZNcckAPXwZI9B-58" value="" style="rounded=0;html=1;jettySize=auto;orthogonalLoop=1;fontSize=11;endArrow=block;endFill=0;endSize=8;strokeWidth=1;shadow=0;labelBackgroundColor=none;edgeStyle=orthogonalEdgeStyle;entryX=0;entryY=0.5;entryDx=0;entryDy=0;exitX=0.5;exitY=1;exitDx=0;exitDy=0;" edge="1" parent="FHTCSGeZNcckAPXwZI9B-60" target="FHTCSGeZNcckAPXwZI9B-17">
          <mxGeometry relative="1" as="geometry">
            <mxPoint x="60" y="430" as="sourcePoint" />
            <mxPoint x="-60" y="610" as="targetPoint" />
            <Array as="points">
              <mxPoint x="60" y="610" />
            </Array>
          </mxGeometry>
        </mxCell>
        <mxCell id="FHTCSGeZNcckAPXwZI9B-0" value="&lt;font style=&quot;color: rgb(255, 255, 255);&quot;&gt;START&lt;/font&gt;" style="ellipse;whiteSpace=wrap;html=1;aspect=fixed;fillColor=#99FF33;" vertex="1" parent="FHTCSGeZNcckAPXwZI9B-60">
          <mxGeometry x="170" width="50" height="50" as="geometry" />
        </mxCell>
        <mxCell id="FHTCSGeZNcckAPXwZI9B-5" value="" style="rounded=0;html=1;jettySize=auto;orthogonalLoop=1;fontSize=11;endArrow=block;endFill=0;endSize=8;strokeWidth=1;shadow=0;labelBackgroundColor=none;edgeStyle=orthogonalEdgeStyle;" edge="1" parent="FHTCSGeZNcckAPXwZI9B-60">
          <mxGeometry relative="1" as="geometry">
            <mxPoint x="195" y="50" as="sourcePoint" />
            <mxPoint x="195" y="190" as="targetPoint" />
          </mxGeometry>
        </mxCell>
        <mxCell id="FHTCSGeZNcckAPXwZI9B-59" value="" style="rounded=0;html=1;jettySize=auto;orthogonalLoop=1;fontSize=11;endArrow=block;endFill=0;endSize=8;strokeWidth=1;shadow=0;labelBackgroundColor=none;edgeStyle=orthogonalEdgeStyle;entryX=0.5;entryY=0;entryDx=0;entryDy=0;" edge="1" parent="FHTCSGeZNcckAPXwZI9B-60">
          <mxGeometry relative="1" as="geometry">
            <mxPoint x="195" y="80" as="sourcePoint" />
            <mxPoint x="70" y="109" as="targetPoint" />
          </mxGeometry>
        </mxCell>
      </root>
    </mxGraphModel>
  </diagram>
</mxfile>
